<svg style="position: absolute; width: 0; height: 0; overflow: hidden;" version="1.1" xmlns="http://www.w3.org/2000/svg">
	<defs>
		<symbol id="olymp-stats-arrow" viewBox="0 0 32 32">
			<title>stats-arrow</title>
			<path d="M14.222 3.609h3.556v-3.534h-3.556v3.534zM14.222 31.927h3.556v-24.74h-3.556v24.74zM21.918 2.363l-2.514 2.382 10.055 9.527 2.514-2.382-10.055-9.527zM0.027 11.89l2.516 2.382 10.055-9.527-2.514-2.382-10.057 9.527z"></path>
		</symbol>
		<symbol id="olymp-little-delete" viewBox="0 0 32 32">
			<title>little-delete</title>
			<path d="M32 4.149l-3.973-3.979-11.936 11.941-11.941-11.941-3.979 3.979 11.941 11.936-11.941 11.936 3.979 3.979 11.941-11.936 11.936 11.936 3.973-3.979-11.936-11.936z"></path>
		</symbol>
		<symbol id="olymp-trophy-icon" viewBox="0 0 36 32">
			<title>trophy-icon</title>
			<path d="M24 4v10.4c0 3.088-2.692 5.6-6 5.6s-6-2.512-6-5.6v-10.4h12zM28 0h-20v14.4c0 5.302 4.476 9.6 10 9.6s10-4.298 10-9.6v-14.4z"></path>
			<path d="M16 22h4v10h-4v-10z"></path>
			<path d="M12 28h12v4h-12v-4z"></path>
			<path d="M12.014 18h-2c-7.506 0-9.782-7.8-9.936-11.924l-0.078-2.076h12.014v14zM4.356 8c0.402 1.914 1.364 4.598 3.658 5.602v-5.602h-3.658z"></path>
			<path d="M23.986 4h12.014l-0.078 2.076c-0.154 4.124-2.43 11.924-9.936 11.924h-2v-14zM27.986 8v5.602c2.294-1.004 3.256-3.688 3.658-5.602h-3.658z"></path>
		</symbol>
		<symbol id="olymp-block-from-chat" viewBox="0 0 35 32">
			<title>block-from-chat</title>
			<path d="M32 0h-28.8c-1.768 0-3.2 1.434-3.2 3.2v16c0 1.766 1.434 3.2 3.2 3.2 0 0 0.6 0 1.6 0v-3.2h-1.6v-16h28.8v19.2c1.766 0 3.2-1.434 3.2-3.2v-16c0-1.766-1.434-3.2-3.2-3.2zM20.8 22.4h1.6v-3.2h-1.6v3.2zM25.6 22.4h3.2v-3.2h-3.2v3.2z"></path>
			<path d="M17.6 19.2l-9.6 6.626v-6.626h-3.2v12.8l12.8-9.6h3.2v-3.2z"></path>
			<path d="M22.125 8.938l-2.262-2.262-2.262 2.262-2.262-2.262-2.264 2.262 2.262 2.262-2.262 2.264 2.264 2.262 2.262-2.262 2.262 2.262 2.262-2.262-2.262-2.264z"></path>
		</symbol>
		<symbol id="olymp-weather-refresh-icon" viewBox="0 0 30 32">
			<title>weather-refresh-icon</title>
			<path d="M14.769 32c-8.155 0-14.769-6.614-14.769-14.769 0-4.177 1.762-7.909 4.561-10.582l-3.414-3.412 12.18-1.794-1.794 12.18-3.348-3.35c-0.475 0.468-0.99 0.906-1.371 1.465v0c-1.115 1.585-1.89 3.407-1.89 5.494 0 5.438 4.409 9.846 9.846 9.846s9.846-4.409 9.846-9.846c0-2.4-0.891-4.566-2.316-6.274l3.764-3.136c2.139 2.56 3.476 5.814 3.476 9.41 0 8.155-6.614 14.769-14.769 14.769z"></path>
		</symbol>
		<symbol id="olymp-popup-left-arrow" viewBox="0 0 18 32">
			<title>popup-left-arrow</title>
			<path d="M0 14.222v3.556h3.556v-3.556h-3.556zM6.805 18.514l-2.514 2.514 10.057 10.055 2.514-2.514-10.057-10.055zM14.348 0.914l-10.057 10.057 2.514 2.514 10.057-10.055-2.514-2.516z"></path>
		</symbol>
		<symbol id="olymp-popup-right-arrow" viewBox="0 0 18 32">
			<title>popup-right-arrow</title>
			<path d="M14.222 14.222v3.556h3.556v-3.556h-3.556zM0.916 28.569l2.514 2.514 10.057-10.055-2.514-2.514-10.057 10.055zM0.916 3.429l10.057 10.055 2.514-2.514-10.057-10.057-2.514 2.516z"></path>
		</symbol>
		<symbol id="olymp-register-icon" viewBox="0 0 37 32">
			<title>register-icon</title>
			<path d="M16 3.213c3.24 0 6.192 1.214 8.446 3.2h4.346c-2.917-3.888-7.549-6.413-12.781-6.413-7.165 0-13.227 4.714-15.259 11.213h3.387c1.899-4.69 6.491-8 11.861-8zM16 28.813c-5.37 0-9.962-3.31-11.861-8h-3.378c2.040 6.485 8.094 11.187 15.25 11.187 5.222 0 9.842-2.515 12.762-6.387h-4.325c-2.256 1.986-5.208 3.2-8.448 3.2zM32 14.413v-4.8h-3.2v4.8h-4.8v3.2h4.8v4.8h3.2v-4.8h4.8v-3.2h-4.8zM3.2 14.413h-3.2v3.2h3.2v-3.2z"></path>
		</symbol>
		<symbol id="olymp-login-icon" viewBox="0 0 29 32">
			<title>login-icon</title>
			<path d="M0 17.443c0 6.515 4.287 12.026 10.195 13.875v-3.081c-4.263-1.728-7.273-5.901-7.273-10.783 0-4.883 3.009-9.056 7.273-10.784v-3.1c-5.908 1.849-10.195 7.36-10.195 13.872zM18.922 3.578v3.092c4.263 1.728 7.273 5.901 7.273 10.783s-3.009 9.056-7.273 10.783v3.071c5.894-1.855 10.169-7.357 10.169-13.863 0-6.503-4.273-12.007-10.169-13.865zM13.104 14.545h2.909v-14.545h-2.909v14.545zM13.104 32h2.909v-2.909h-2.909v2.909z"></path>
		</symbol>
		<symbol id="olymp-three-dots-icon" viewBox="0 0 128 32">
			<title>three-dots-icon</title>
			<path d="M112-0.008c-8.84 0-16 7.16-16 16 0 8.832 7.16 15.992 16 15.992s16-7.16 16-15.992c0-8.84-7.16-16-16-16zM64-0.008c-8.84 0-16 7.16-16 16 0 8.832 7.16 15.992 16 15.992s16-7.16 16-15.992c0-8.84-7.16-16-16-16zM16-0.008c-8.832 0-16 7.16-16 16s7.168 15.992 16 15.992 16-7.16 16-15.992c0-8.84-7.16-16-16-16z"></path>
		</symbol>
		<symbol id="olymp-small-pin-icon" viewBox="0 0 25 32">
			<title>small-pin-icon</title>
			<path d="M12.444 7.111c-2.946 0-5.333 2.389-5.333 5.333 0 2.946 2.388 5.333 5.333 5.333s5.333-2.386 5.333-5.333c0-2.944-2.388-5.333-5.333-5.333zM12.444 14.222c-0.981 0-1.778-0.796-1.778-1.778s0.796-1.778 1.778-1.778 1.778 0.796 1.778 1.778-0.796 1.778-1.778 1.778z"></path>
			<path d="M12.444 0c-4.823 0-8.996 2.891-11.061 7.111h4.194c1.632-2.151 4.087-3.556 6.868-3.556 4.901 0 8.889 4.277 8.889 9.534 0 7.237-6.46 13.865-8.876 15.204-1.838-1.054-6.148-5.36-8.011-10.516h-3.73c2.263 7.817 9.374 14.222 11.728 14.222 2.811 0 12.444-8.951 12.444-18.91 0-7.228-5.573-13.090-12.444-13.090z"></path>
			<path d="M0 10.667h3.556v3.556h-3.556v-3.556z"></path>
		</symbol>
		<symbol id="olymp-small-calendar-icon" viewBox="0 0 25 32">
			<title>small-calendar-icon</title>
			<path d="M21.333 3.556h-1.778v-1.778c0-0.983-0.796-1.778-1.778-1.778-0.983 0-1.778 0.795-1.778 1.778v1.778h-7.111v-1.778c0-0.983-0.796-1.778-1.778-1.778-0.983 0-1.778 0.795-1.778 1.778v1.778h-1.778c-1.963 0-3.556 1.415-3.556 3.159v22.123c0 1.748 1.593 3.163 3.556 3.163h14.222v-3.556h-14.222v-21.333h1.778v1.778c0 0.981 0.795 1.778 1.778 1.778 0.981 0 1.778-0.796 1.778-1.778v-1.778h7.111v1.778c0 0.981 0.795 1.778 1.778 1.778 0.981 0 1.778-0.796 1.778-1.778v-1.778h1.778v17.778h3.556v-18.174c0-1.744-1.593-3.159-3.556-3.159zM21.333 32h3.556v-3.556h-3.556v3.556zM7.111 17.776h10.667v-3.556h-10.667v3.556zM7.111 24.887h3.556v-3.556h-3.556v3.556zM14.222 24.887h3.556v-3.556h-3.556v3.556z"></path>
		</symbol>
		<symbol id="olymp-share-post-icon" viewBox="0 0 37 32">
			<title>share-post-icon</title>
			<path d="M11.691 16.788v3.046h6.085v3.048h-6.085v3.072l-6.095-4.584 6.095-4.582zM14.738 10.683l-14.216 10.686 14.216 10.688v-6.129h6.085v-9.144h-6.085v-6.101z"></path>
			<path d="M16.262 6.095h3.048v3.048h-3.048v-3.048z"></path>
			<path d="M33.33 8.25l-10.973-8.25v9.149h3.048v-3.046l6.095 4.582-6.095 4.582v-3.072h-9.134v3.048h6.086v6.129l14.214-10.686z"></path>
		</symbol>
		<symbol id="olymp-like-post-icon" viewBox="0 0 37 32">
			<title>like-post-icon</title>
			<path d="M33.449 2.994c-2.066-2.009-4.377-3.006-7.191-3.006-2.69 0-5.691 2.089-7.934 4.306-2.311-2.217-5.221-4.295-8.002-4.295-2.722 0-5.122 0.793-7.12 2.736-4.165 4.043-4.165 10.601 0 14.649 1.189 1.154 12.729 13.655 12.729 13.655 0.656 0.64 1.52 0.96 2.379 0.96 0.862 0 1.721-0.32 2.382-0.96l1.726-1.815-3.237-3.234-0.857 0.905c-3.122-3.381-10.862-11.744-11.936-12.789-1.122-1.090-1.739-2.528-1.737-4.050 0-1.52 0.617-2.955 1.739-4.046 1.024-0.997 2.238-1.44 3.931-1.44 0.777 0 2.512 0.791 4.839 3.022l3.214 3.081 3.163-3.131c2.215-2.19 4.037-2.985 4.718-2.985 1.573 0 2.77 0.512 4.007 1.714 1.12 1.088 1.737 2.523 1.737 4.046s-0.617 2.958-1.669 3.982c-0.13 0.121-0.135 0.123-2.037 2.123l-0.187 0.199 3.23 3.237 0.046-0.048 0.242-0.258c0 0 1.79-1.881 1.824-1.911 4.162-4.043 4.162-10.603 0-14.647z"></path>
			<path d="M22.889 20.578h4.571v4.571h-4.571v-4.571z"></path>
		</symbol>
		<symbol id="olymp-dropdown-arrow-icon" viewBox="0 0 48 32">
			<title>dropdown-arrow-icon</title>
			<path d="M41.888 0.104l-17.952 19.064-17.952-19.064-5.984 6.352 23.936 25.44 23.936-25.44z"></path>
		</symbol>
		<symbol id="olymp-accordion-open-icon" viewBox="0 0 32 32">
			<title>accordion-open-icon</title>
			<path d="M32 12.8v6.4h-32v-6.4h32z"></path>
			<path d="M19.2 32h-6.4v-32h6.4v32z"></path>
		</symbol>
		<symbol id="olymp-comments-post-icon" viewBox="0 0 36 32">
			<title>comments-post-icon</title>
			<path d="M32 0h-28c-2.21 0-4 1.792-4 4v18c0 2.208 1.792 4 4 4 0 0 0.75 0 2 0v-4h-2v-18h28v22c2.208 0 4-1.792 4-4v-18c0-2.208-1.792-4-4-4zM18 26h2v-4h-2v4zM24 26h4v-4h-4v4zM8 12h20v-4h-20v4zM8 18h12v-4h-12v4z"></path>
			<path d="M18 22l-8 4.282v-4.282h-4v10l12-6v-4z"></path>
		</symbol>
		<symbol id="olymp-accordion-close-icon" viewBox="0 0 32 32">
			<title>accordion-close-icon</title>
			<path d="M32 12.8v6.4h-32v-6.4h32z"></path>
		</symbol>
		<symbol id="olymp-play-icon" viewBox="0 0 28 32">
			<title>play-icon</title>
			<path d="M24.71 10.664l-15.614-9.574c-1.146-0.698-2.312-1.048-3.478-1.048-2.792 0-5.618 2.188-5.618 6.368v5.59h4c0-4.784 0-5.592 0-5.592 0-1.498 0.628-2.368 1.618-2.368 0.408 0 0.876 0.148 1.388 0.458l15.63 9.584c1.758 1.066 1.848 2.812 0.088 3.878l-15.718 9.58c-0.512 0.314-0.982 0.46-1.39 0.46-0.988 0-1.616-0.868-1.616-2.364 0 0 0-0.6 0-1.586 0-0.012 0-0.036 0-0.048h-4v1.634c0 4.178 2.826 6.364 5.616 6.364 1.166 0 2.334-0.35 3.47-1.042l15.72-9.58c2.026-1.23 3.194-3.164 3.194-5.302 0.002-2.172-1.198-4.144-3.29-5.412z"></path>
			<path d="M0 16h4v4h-4v-4z"></path>
		</symbol>
		<symbol id="olymp-remove-playlist-icon" viewBox="0 0 38 32">
			<title>remove-playlist-icon</title>
			<path d="M8.813 19.202c0.442 0 0.8 0.358 0.8 0.8v8.002c0 0.44-0.358 0.797-0.8 0.797s-0.8-0.357-0.8-0.797v-8.002c0-0.442 0.358-0.8 0.8-0.8zM8.813 16.002c-2.206 0-4 1.795-4 4v8.002c0 2.203 1.794 3.997 4 3.997s4-1.794 4-3.997v-8.002c0-2.205-1.794-4-4-4v0z"></path>
			<path d="M6.275 27.138c-1.694-0.067-3.050-1.451-3.050-3.163s1.357-3.096 3.050-3.163v-3.2c-3.475 0.070-6.275 2.896-6.275 6.389s2.8 6.318 6.275 6.387v-3.25z"></path>
			<path d="M23.186 19.202c0.442 0 0.8 0.358 0.8 0.8v8.002c0 0.44-0.358 0.797-0.8 0.797s-0.8-0.357-0.8-0.797v-8.002c0-0.442 0.358-0.8 0.8-0.8zM23.186 16.002c-2.206 0-4 1.795-4 4v8.002c0 2.203 1.794 3.997 4 3.997 2.205 0 3.998-1.794 3.998-3.997v-8.002c0-2.205-1.794-4-3.998-4v0z"></path>
			<path d="M25.725 27.138c1.694-0.067 3.050-1.451 3.050-3.163s-1.357-3.096-3.050-3.163v-3.2c3.475 0.070 6.275 2.896 6.275 6.389s-2.8 6.318-6.275 6.387v-3.25z"></path>
			<path d="M3.963 11.683c-0.485 1.35-0.763 2.8-0.763 4.317v4.218h3.2v-4.218c0-0.848 0.122-1.666 0.328-2.448l-2.765-1.869z"></path>
			<path d="M16 3.2c-1.518 0-2.968 0.278-4.32 0.763l1.862 2.766c0.787-0.208 1.606-0.33 2.458-0.33 5.294 0 9.6 4.306 9.6 9.6v4.218h3.2v-4.218c0-7.069-5.731-12.8-12.8-12.8z"></path>
			<path d="M6.434 6.366h3.2v3.2h-3.2v-3.2z"></path>
			<path d="M28.8 0h9.6v3.2h-9.6v-3.2z"></path>
		</symbol>
		<symbol id="olymp-save-playlist-icon" viewBox="0 0 35 32">
			<title>save-playlist-icon</title>
			<path d="M8.012 20.365c0.401 0 0.727 0.326 0.727 0.727v7.274c0 0.4-0.326 0.724-0.727 0.724s-0.727-0.324-0.727-0.724v-7.274c0-0.401 0.326-0.727 0.727-0.727zM8.012 17.456c-2.006 0-3.636 1.632-3.636 3.636v7.274c0 2.003 1.631 3.633 3.636 3.633s3.636-1.631 3.636-3.633v-7.274c0-2.004-1.631-3.636-3.636-3.636v0z"></path>
			<path d="M5.705 27.58c-1.54-0.061-2.772-1.319-2.772-2.876s1.233-2.815 2.772-2.876v-2.909c-3.159 0.064-5.705 2.633-5.705 5.808s2.545 5.744 5.705 5.807v-2.954z"></path>
			<path d="M21.078 20.365c0.401 0 0.727 0.326 0.727 0.727v7.274c0 0.4-0.326 0.724-0.727 0.724s-0.727-0.324-0.727-0.724v-7.274c0-0.401 0.326-0.727 0.727-0.727zM21.078 17.456c-2.006 0-3.636 1.632-3.636 3.636v7.274c0 2.003 1.631 3.633 3.636 3.633 2.004 0 3.635-1.631 3.635-3.633v-7.274c0-2.004-1.631-3.636-3.635-3.636v0z"></path>
			<path d="M23.386 27.58c1.54-0.061 2.772-1.319 2.772-2.876s-1.233-2.815-2.772-2.876v-2.909c3.159 0.064 5.705 2.633 5.705 5.808s-2.545 5.744-5.705 5.807v-2.954z"></path>
			<path d="M3.603 13.53c-0.441 1.228-0.694 2.545-0.694 3.924v3.834h2.909v-3.834c0-0.771 0.111-1.514 0.298-2.225l-2.513-1.699z"></path>
			<path d="M14.545 5.818c-1.38 0-2.698 0.253-3.927 0.694l1.693 2.515c0.716-0.189 1.46-0.3 2.234-0.3 4.813 0 8.727 3.914 8.727 8.727v3.834h2.909v-3.834c0-6.426-5.21-11.636-11.636-11.636z"></path>
			<path d="M5.849 8.697h2.909v2.909h-2.909v-2.909z"></path>
			<path d="M29.091 0h2.909v8.727h-2.909v-8.727z"></path>
			<path d="M26.182 2.909h8.727v2.909h-8.727v-2.909z"></path>
		</symbol>
		<symbol id="olymp-share-icon" viewBox="0 0 40 32">
			<title>share-icon</title>
			<path d="M11.168 16.788v3.046h9.132v3.048h-9.132v3.072l-6.095-4.584 6.095-4.582zM14.216 10.683l-14.216 10.685 14.216 10.688v-6.129h9.132v-9.144h-9.132v-6.1z"></path>
			<path d="M15.739 6.095h3.048v3.048h-3.048v-3.048z"></path>
			<path d="M35.854 8.25l-10.973-8.25v6.1h-3.048v3.049h6.095v-3.046l6.095 4.582-6.095 4.582v-3.072h-12.18v3.048h9.132v6.129l14.214-10.686z"></path>
		</symbol>
		<symbol id="olymp-heart-icon" viewBox="0 0 36 32">
			<title>heart-icon</title>
			<path d="M23.111 21.333h3.556v3.556h-3.556v-3.556z"></path>
			<path d="M32.512 2.997c-2.014-2.011-4.263-3.006-7.006-3.006-2.62 0-5.545 2.089-7.728 4.304-2.254-2.217-5.086-4.295-7.797-4.295-2.652 0-4.99 0.793-6.937 2.738-4.057 4.043-4.057 10.599 0 14.647 1.157 1.157 12.402 13.657 12.402 13.657 0.64 0.638 1.481 0.958 2.32 0.958s1.678-0.32 2.318-0.958l1.863-2.012-2.523-2.507-1.655 1.787c-2.078-2.311-11.095-12.324-12.213-13.442-1.291-1.285-2-2.994-2-4.811 0-1.813 0.709-3.518 2-4.804 1.177-1.175 2.54-1.698 4.425-1.698 0.464 0 2.215 0.236 5.303 3.273l2.533 2.492 2.492-2.532c2.208-2.242 4.201-3.244 5.196-3.244 1.769 0 3.113 0.588 4.496 1.97 1.289 1.284 1.998 2.99 1.998 4.804 0 1.815-0.709 3.522-1.966 4.775-0.087 0.085-0.098 0.094-1.9 2.041l-0.156 0.167 2.523 2.51 0.24-0.26c0 0 1.742-1.881 1.774-1.911 4.055-4.043 4.055-10.603-0.002-14.644z"></path>
		</symbol>
		<symbol id="olymp-magnifying-glass-icon" viewBox="0 0 34 32">
			<title>magnifying-glass-icon</title>
			<path d="M20.809 3.57c-4.76-4.76-12.478-4.76-17.239 0s-4.76 12.48 0 17.239c4.76 4.76 12.48 4.76 17.239 0 4.76-4.759 4.76-12.478 0-17.239zM18.654 18.654c-3.57 3.57-9.361 3.57-12.93 0-3.57-3.57-3.57-9.359 0-12.93s9.361-3.57 12.93 0c3.57 3.569 3.57 9.359 0 12.93z"></path>
			<path d="M24.022 21.907l2.154-2.156 2.157 2.155-2.154 2.156-2.157-2.155z"></path>
			<path d="M28.34 28.364c-0.596 0.597-1.559 0.597-2.155 0l-6.464-6.464-0.834-0.852 4.3-4.3-1.312-1.314-6.466 6.466 8.62 8.619c1.783 1.783 4.683 1.783 6.464 0 1.783-1.781 1.783-4.681 0-6.464l-2.155 2.155c0.596 0.596 0.594 1.562 0 2.155z"></path>
		</symbol>
		<symbol id="olymp-cupcake-icon" viewBox="0 0 27 32">
			<title>cupcake-icon</title>
			<path d="M5.349 32h3.984v-2.667h-1.671l-0.933-6.541 12.959-0.063 0.312-0.063h-15.979z"></path>
			<path d="M20 22.667l-0.963 6.667h-1.704v2.667h4.016l1.339-9.333z"></path>
			<path d="M25 12.908c-0.921-2.695-3.583-4.743-7.667-4.891v2.673c2.639 0.121 4.513 1.237 5.143 3.080 0.157 0.457 0.435 0.864 0.805 1.176 0.451 0.379 0.719 1.028 0.719 1.737 0 0.649-0.232 1.251-0.635 1.648-0.377 0.372-0.636 0.849-0.74 1.368-0.195 0.957-1.133 1.651-2.203 1.652-0.375-0.047-1.288-0.669-1.587-0.873-0.447-0.305-0.972-0.464-1.503-0.464-0.173 0-0.347 0.017-0.519 0.051-0.7 0.139-1.317 0.553-1.709 1.151-0.605 0.919-1.267 1.468-1.772 1.468-0.596 0-1.305-0.757-1.771-1.467-0.392-0.597-1.008-1.013-1.709-1.152-0.173-0.033-0.347-0.049-0.52-0.049-0.531 0-1.055 0.159-1.5 0.463-0.301 0.204-1.216 0.828-1.557 0.873-1.101 0-2.040-0.695-2.233-1.651-0.105-0.52-0.363-0.996-0.74-1.368-0.405-0.4-0.636-1-0.636-1.649 0-0.709 0.268-1.359 0.717-1.736 0.371-0.312 0.649-0.719 0.805-1.177 0.588-1.716 2.545-2.885 5.144-3.079v-2.675c-3.924 0.225-6.751 2.212-7.667 4.891-1.005 0.847-1.667 2.217-1.667 3.776 0 1.428 0.561 2.691 1.427 3.545 0.436 2.157 2.437 3.789 4.848 3.789 1.073 0 2.248-0.784 3.059-1.336 0.871 1.327 2.227 2.669 4 2.669s3.128-1.343 4-2.669c0.809 0.552 1.984 1.336 3.059 1.336 2.411 0 4.412-1.632 4.848-3.789 0.865-0.856 1.427-2.117 1.427-3.545 0-1.559-0.661-2.929-1.667-3.776z"></path>
			<path d="M12 29.333h2.667v2.667h-2.667v-2.667z"></path>
			<path d="M12 13.332h2.667v-8h-2.667v8zM13.333 0c-0.737 0-1.333 0.596-1.333 1.332v1.333c0 0.736 0.596 1.333 1.333 1.333s1.333-0.597 1.333-1.333v-1.333c0-0.736-0.596-1.332-1.333-1.332z"></path>
		</symbol>
		<symbol id="olymp-weather-icon" viewBox="0 0 38 32">
			<title>weather-icon</title>
			<path d="M18.909 29.091h2.909v2.909h-2.909v-2.909z"></path>
			<path d="M28.236 21.393c0-3.446-3.037-6.243-6.828-6.353-1.809-2.070-4.609-3.405-7.76-3.405-5.252 0-9.536 3.697-9.852 8.362-2.256 1.062-3.796 3.185-3.796 5.638 0 3.516 3.159 6.365 7.059 6.365h8.941v-2.909h-8.941c-2.288 0-4.15-1.549-4.15-3.456 0-1.238 0.815-2.39 2.124-3.005l1.548-0.729 0.116-1.708c0.214-3.168 3.267-5.649 6.95-5.649 2.201 0 4.231 0.879 5.571 2.41l0.836 0.956 1.27 0.036c2.208 0.065 4.004 1.61 4.004 3.446v2.016l1.887 0.707c1.139 0.431 1.876 1.36 1.876 2.368 0 0.644 0 2.608-3.209 2.608h-1.155v2.909h1.155c3.379 0 6.118-1.789 6.118-5.517 0-2.294-1.553-4.26-3.764-5.089z"></path>
			<path d="M21.818 7.273c-4.016 0-7.363 2.727-8.38 6.419l2.561 0.855 0.179 0.087c0.615-2.551 2.899-4.452 5.639-4.452 3.213 0 5.818 2.607 5.818 5.818 0 1.686-0.729 3.193-1.875 4.257 0.522 0.682 1.168 1.529 1.756 2.304 1.841-1.603 3.028-3.932 3.028-6.561 0-4.819-3.908-8.727-8.727-8.727zM13.693 5.818l-2.057-2.058c-0.569-0.567-1.489-0.567-2.057 0-0.569 0.57-0.569 1.489 0 2.058l2.057 2.057c0.569 0.57 1.488 0.57 2.057 0 0.569-0.567 0.569-1.487 0-2.057zM21.818 5.818c0.804 0 1.455-0.652 1.455-1.455v-2.909c0-0.801-0.65-1.455-1.455-1.455s-1.455 0.653-1.455 1.456v2.909c0 0.801 0.65 1.453 1.455 1.453zM36.364 13.091h-2.909c-0.804 0-1.455 0.652-1.455 1.456s0.65 1.453 1.455 1.453h2.909c0.804 0 1.455-0.649 1.455-1.453s-0.65-1.456-1.455-1.456z"></path>
			<path d="M33.277 3.223c0.57 0.569 0.567 1.487-0.001 2.057l-2.057 2.057c-0.569 0.569-1.487 0.57-2.057 0.001-0.569-0.57-0.569-1.489 0-2.060l2.057-2.057c0.569-0.569 1.488-0.567 2.058 0.001z"></path>
		</symbol>
		<symbol id="olymp-star-icon" viewBox="0 0 32 32">
			<title>star-icon</title>
			<path d="M24.029 27.192h3.2v3.2h-3.2v-3.2z"></path>
			<path d="M31.88 11.91c-0.275-0.826-0.984-1.43-1.837-1.562l-8.309-1.28-3.611-7.763c-0.379-0.816-1.194-1.336-2.090-1.336-0.893 0-1.707 0.522-2.086 1.336l-3.613 7.763-8.309 1.28c-0.854 0.131-1.563 0.736-1.838 1.562-0.275 0.827-0.067 1.739 0.536 2.36l6.088 6.298-1.413 8.731c-0.142 0.88 0.226 1.762 0.947 2.277 0.397 0.28 0.862 0.424 1.328 0.424 0.384 0 0.766-0.098 1.115-0.291l7.243-4.037 4.768 2.656v-3.662l-4.768-2.658-7.184 4.005 1.378-8.517-1.114-1.154-4.922-5.090 8.323-1.282 0.723-1.552 2.798-6.014 3.52 7.566 8.326 1.283-6.038 6.243 0.733 4.53h3.242l-0.56-3.458 6.091-6.298c0.6-0.622 0.806-1.534 0.531-2.362z"></path>
		</symbol>
		<symbol id="olymp-headphones-icon" viewBox="0 0 36 32">
			<title>headphones-icon</title>
			<path d="M9.792 17.78c0.491 0 0.889 0.398 0.889 0.889v8.891c0 0.489-0.398 0.885-0.889 0.885s-0.889-0.396-0.889-0.885v-8.891c0-0.491 0.398-0.889 0.889-0.889zM9.792 14.224c-2.452 0-4.444 1.995-4.444 4.444v8.891c0 2.448 1.993 4.441 4.444 4.441s4.444-1.993 4.444-4.441v-8.891c0-2.45-1.993-4.444-4.444-4.444v0z"></path>
			<path d="M6.972 26.597c-1.883-0.075-3.388-1.612-3.388-3.515s1.508-3.44 3.388-3.515v-3.556c-3.861 0.078-6.972 3.218-6.972 7.099s3.111 7.020 6.972 7.097v-3.611z"></path>
			<path d="M25.762 17.78c0.491 0 0.889 0.398 0.889 0.889v8.891c0 0.489-0.398 0.885-0.889 0.885s-0.889-0.396-0.889-0.885v-8.891c0-0.491 0.398-0.889 0.889-0.889zM25.762 14.224c-2.452 0-4.444 1.995-4.444 4.444v8.891c0 2.448 1.993 4.441 4.444 4.441 2.45 0 4.443-1.993 4.443-4.441v-8.891c0-2.45-1.993-4.444-4.443-4.444v0z"></path>
			<path d="M28.583 26.597c1.883-0.075 3.388-1.612 3.388-3.515s-1.508-3.44-3.388-3.515v-3.556c3.861 0.078 6.972 3.218 6.972 7.099s-3.111 7.020-6.972 7.097v-3.611z"></path>
			<path d="M4.404 9.426c-0.539 1.5-0.848 3.111-0.848 4.796v4.686h3.556v-4.686c0-0.942 0.135-1.851 0.364-2.72l-3.072-2.076z"></path>
			<path d="M17.778 0c-1.687 0-3.298 0.309-4.8 0.848l2.069 3.074c0.875-0.231 1.785-0.366 2.731-0.366 5.883 0 10.667 4.784 10.667 10.667v4.686h3.556v-4.686c0-7.854-6.368-14.222-14.222-14.222z"></path>
			<path d="M7.148 3.518h3.556v3.556h-3.556v-3.556z"></path>
		</symbol>
		<symbol id="olymp-block-from-chat-icon" viewBox="0 0 35 32">
			<title>block-from-chat-icon</title>
			<path d="M32 0h-28.8c-1.768 0-3.2 1.434-3.2 3.2v16c0 1.766 1.434 3.2 3.2 3.2 0 0 0.6 0 1.6 0v-3.2h-1.6v-16h28.8v19.2c1.766 0 3.2-1.434 3.2-3.2v-16c0-1.766-1.434-3.2-3.2-3.2zM20.8 22.4h1.6v-3.2h-1.6v3.2zM25.6 22.4h3.2v-3.2h-3.2v3.2z"></path>
			<path d="M17.6 19.2l-9.6 6.626v-6.626h-3.2v12.8l12.8-9.6h3.2v-3.2z"></path>
			<path d="M22.125 8.938l-2.262-2.262-2.262 2.262-2.262-2.262-2.264 2.262 2.262 2.262-2.262 2.264 2.264 2.262 2.262-2.262 2.262 2.262 2.262-2.262-2.262-2.264z"></path>
		</symbol>
		<symbol id="olymp-add-to-conversation-icon" viewBox="0 0 35 32">
			<title>add-to-conversation-icon</title>
			<path d="M32 0h-28.8c-1.768 0-3.2 1.434-3.2 3.2v16c0 1.766 1.434 3.2 3.2 3.2 0 0 0.6 0 1.6 0v-3.2h-1.6v-16h28.8v19.2c1.766 0 3.2-1.434 3.2-3.2v-16c0-1.766-1.434-3.2-3.2-3.2zM20.8 22.4h1.6v-3.2h-1.6v3.2zM25.6 22.4h3.2v-3.2h-3.2v3.2z"></path>
			<path d="M17.6 19.2l-9.6 6.626v-6.626h-3.2v12.8l12.8-9.6h3.2v-3.2z"></path>
			<path d="M22.4 9.6h-3.2v-3.2h-3.2v3.2h-3.2v3.2h3.2v3.2h3.2v-3.2h3.2z"></path>
		</symbol>
		<symbol id="olymp-speech-balloon-icon" viewBox="0 0 35 32">
			<title>speech-balloon-icon</title>
			<path d="M32 0h-28.8c-1.768 0-3.2 1.434-3.2 3.2v16c0 1.766 1.434 3.2 3.2 3.2 0 0 0.6 0 1.6 0v-3.2h-1.6v-16h28.8v19.2c1.766 0 3.2-1.434 3.2-3.2v-16c0-1.766-1.434-3.2-3.2-3.2zM20.8 22.4h1.6v-3.2h-1.6v3.2zM25.6 22.4h3.2v-3.2h-3.2v3.2zM27.2 6.4h-20.8v3.2h20.8v-3.2zM6.4 16h12.8v-3.2h-12.8v3.2z"></path>
			<path d="M17.6 19.2l-9.6 6.626v-6.626h-3.2v12.8l12.8-9.6h3.2v-3.2z"></path>
		</symbol>
		<symbol id="olymp-add-a-place-icon" viewBox="0 0 26 32">
			<title>add-a-place-icon</title>
			<path d="M13.091 0.001c-5.697 0-10.531 3.645-12.33 8.726h3.145c1.639-3.433 5.135-5.817 9.185-5.817 5.613 0 10.182 4.567 10.182 10.182 0 7.971-7.881 15.129-10.177 15.956-1.953-0.71-7.364-5.712-9.396-11.594h-3.040c2.268 7.964 9.923 14.545 12.432 14.545 2.957 0 13.091-8.95 13.091-18.908 0-7.231-5.86-13.091-13.091-13.091z"></path>
			<path d="M13.091 7.316c-3.213 0-5.818 2.605-5.818 5.818 0 3.215 2.605 5.818 5.818 5.818s5.818-2.604 5.818-5.818c0-3.215-2.605-5.818-5.818-5.818zM13.091 16.045c-1.606 0-2.909-1.303-2.909-2.909s1.303-2.909 2.909-2.909 2.909 1.303 2.909 2.909-1.303 2.909-2.909 2.909z"></path>
			<path d="M0 11.636h2.909v2.909h-2.909v-2.909z"></path>
		</symbol>
		<symbol id="olymp-chat---messages-icon" viewBox="0 0 40 32">
			<title>chat---messages-icon</title>
			<path d="M24.381 7.621h-21.333c-1.378 0-3.048 1.606-3.048 3.046v13.716c0 1.443 1.67 3.048 3.048 3.048v4.57l12.19-4.568v-3.051l-9.143 3.051v-3.051h-3.048v-13.714h21.333v16.763c1.378 0 3.048-1.605 3.048-3.048v-13.716c0-1.44-1.67-3.046-3.048-3.046zM18.286 27.432h3.048v-3.048h-3.048v3.048zM6.095 16.763h15.238v-3.046h-15.238v3.046zM6.095 21.336h9.143v-3.048h-9.143v3.048zM15.238 3.051h24.381c0-1.443-1.67-3.049-3.048-3.049h-21.333c-1.378 0-3.048 1.606-3.048 3.049v1.527h3.048v-1.527zM36.571 16.763l-4.571-0.002v3.051l-3.048-1.016v3.301l6.095 2.284v-4.568c0.779 0 1.524 0 1.524 0 1.378 0 3.048-1.606 3.048-3.049v-4.571h-3.048v4.571zM36.571 9.144h3.048v-3.048h-3.048v3.048z"></path>
		</symbol>
		<symbol id="olymp-check-icon" viewBox="0 0 37 32">
			<title>check-icon</title>
			<path d="M11.243 23.184l-7.424-7.421-3.712 3.712 11.136 11.136 18.557-18.557-3.712-3.715-14.845 14.845zM33.512 0.915l-3.712 3.712 3.712 3.712 3.712-3.712-3.712-3.712z"></path>
		</symbol>
		<symbol id="olymp-plus-icon" viewBox="0 0 32 32">
			<title>plus-icon</title>
			<path d="M18.286 0h-4.571v13.714h-13.714v4.571h13.714v13.714h4.571v-13.714h4.571v-4.571h-4.571v-13.714zM27.429 13.714v4.571h4.571v-4.571h-4.571z"></path>
		</symbol>
		<symbol id="olymp-albums-icon" viewBox="0 0 32 32">
			<title>albums-icon</title>
			<path d="M17.778 0v14.222h14.222v-14.222h-14.222zM28.444 10.667h-7.111v-7.111h7.111v7.111zM0 32h14.222v-14.222h-14.222v14.222zM3.556 21.333h7.111v7.111h-7.111v-7.111zM28.444 28.444h-7.111v-7.111h3.556v-3.556h-7.111v14.222h14.222v-7.111h-3.556v3.556zM0 14.222h14.222v-14.222h-14.222v14.222zM3.556 3.556h7.111v7.111h-7.111v-7.111zM28.444 21.333h3.556v-3.556h-3.556v3.556z"></path>
		</symbol>
		<symbol id="olymp-photos-icon" viewBox="0 0 29 32">
			<title>photos-icon</title>
			<path d="M6.4 22.402h16v-16h-16v16zM9.6 9.602h9.6v9.6h-9.6v-9.6zM25.6 32h3.2v-3.2h-3.2v3.2zM25.6 0h-22.4c-1.766 0-3.2 1.432-3.2 3.2v25.6c0 1.766 1.434 3.2 3.2 3.2h19.2v-3.2h-19.2v-25.6h22.4v22.398h3.2v-22.398c0-1.768-1.434-3.2-3.2-3.2z"></path>
		</symbol>
		<symbol id="olymp-day-calendar-icon" viewBox="0 0 26 32">
			<title>day-calendar-icon</title>
			<path d="M23.273 32h2.909v-2.908h-2.909v2.908zM11.636 21.818h2.909v-2.908h-2.909v2.908zM23.273 2.911h-2.909v-1.456c0-0.803-0.652-1.455-1.455-1.455-0.804 0-1.455 0.652-1.455 1.455v1.455h-8.727v-1.455c0-0.803-0.652-1.455-1.455-1.455-0.804 0-1.455 0.652-1.455 1.455v1.455h-2.909c-1.606 0-2.909 1.302-2.909 2.909v23.273c0 1.607 1.303 2.909 2.909 2.909h17.455v-2.908h-17.455v-23.274h2.909v1.455c0 0.803 0.65 1.455 1.455 1.455 0.803 0 1.455-0.652 1.455-1.455v-1.455h8.727v1.455c0 0.803 0.65 1.455 1.455 1.455 0.803 0 1.455-0.652 1.455-1.455v-1.455h2.909v20.364h2.909v-20.364c0-1.606-1.303-2.908-2.909-2.908zM7.273 26.185h11.636v-11.636h-11.636v11.636zM10.182 17.457h5.818v5.818h-5.818v-5.818z"></path>
		</symbol>
		<symbol id="olymp-week-calendar-icon" viewBox="0 0 26 32">
			<title>week-calendar-icon</title>
			<path d="M23.273 32h2.909v-2.908h-2.909v2.908zM23.273 2.911h-2.909v-1.456c0-0.803-0.652-1.455-1.455-1.455-0.804 0-1.455 0.652-1.455 1.455v1.455h-8.727v-1.455c0-0.803-0.652-1.455-1.455-1.455-0.804 0-1.455 0.652-1.455 1.455v1.455h-2.909c-1.606 0-2.909 1.302-2.909 2.909v23.273c0 1.607 1.303 2.909 2.909 2.909h17.455v-2.908h-17.455v-23.274h2.909v1.455c0 0.803 0.65 1.455 1.455 1.455 0.803 0 1.455-0.652 1.455-1.455v-1.455h8.727v1.455c0 0.803 0.65 1.455 1.455 1.455 0.803 0 1.455-0.652 1.455-1.455v-1.455h2.909v20.364h2.909v-20.364c0-1.606-1.303-2.908-2.909-2.908zM7.273 26.182h11.636v-2.908h-11.636v2.908zM18.909 18.909h-11.636v2.911h11.636v-2.911zM18.909 14.545h-11.636v2.909h11.636v-2.909z"></path>
		</symbol>
		<symbol id="olymp-month-calendar-icon" viewBox="0 0 26 32">
			<title>month-calendar-icon</title>
			<path d="M23.273 32h2.909v-2.908h-2.909v2.908zM23.273 2.911h-2.909v-1.456c0-0.803-0.65-1.455-1.455-1.455s-1.455 0.652-1.455 1.455v1.455h-8.727v-1.455c0-0.803-0.652-1.455-1.455-1.455-0.804 0-1.455 0.652-1.455 1.455v1.455h-2.909c-1.606 0-2.909 1.302-2.909 2.909v23.273c0 1.607 1.303 2.909 2.909 2.909h17.455v-2.908h-17.455v-23.274h2.909v1.455c0 0.803 0.65 1.455 1.455 1.455 0.803 0 1.455-0.652 1.455-1.455v-1.455h8.727v1.455c0 0.803 0.65 1.455 1.455 1.455s1.455-0.652 1.455-1.455v-1.455h2.909v20.364h2.909v-20.364c0-1.606-1.303-2.908-2.909-2.908zM7.273 26.182h2.909v-2.909h-2.909v2.909zM11.636 26.182h2.909v-2.909h-2.909v2.909zM16 26.182h2.909v-2.909h-2.909v2.909zM10.182 18.909h-2.909v2.911h2.909v-2.911zM14.545 18.909h-2.909v2.911h2.909v-2.911zM18.909 18.909h-2.909v2.911h2.909v-2.911zM10.182 14.545h-2.909v2.909h2.909v-2.909zM14.545 14.545h-2.909v2.909h2.909v-2.909zM18.909 14.545h-2.909v2.909h2.909v-2.909z"></path>
		</symbol>
		<symbol id="olymp-checked-calendar-icon" viewBox="0 0 26 32">
			<title>checked-calendar-icon</title>
			<path d="M23.273 31.999h2.909v-2.908h-2.909v2.908zM23.273 2.909h-2.909v-1.455c0-0.803-0.65-1.455-1.455-1.455s-1.455 0.652-1.455 1.455v1.455h-8.727v-1.455c0-0.803-0.652-1.455-1.455-1.455-0.804 0-1.455 0.652-1.455 1.455v1.455h-2.909c-1.606 0-2.909 1.302-2.909 2.909v23.273c0 1.606 1.303 2.908 2.909 2.908h17.455v-2.908h-17.455v-23.273h2.909v1.455c0 0.803 0.65 1.455 1.455 1.455 0.803 0 1.455-0.652 1.455-1.455v-1.455h8.727v1.455c0 0.803 0.65 1.455 1.455 1.455s1.455-0.652 1.455-1.455v-1.455h2.909v20.364h2.909v-20.364c0-1.607-1.303-2.909-2.909-2.909zM11.033 19.513l-2.057-2.057-2.057 2.057 4.115 4.113 8.227-8.228-2.057-2.057-6.172 6.172z"></path>
		</symbol>
		<symbol id="olymp-multimedia-icon" viewBox="0 0 32 32">
			<title>multimedia-icon</title>
			<path d="M28.8 0.002h-22.4v3.2h22.4v5.41l-11.57 5.786-7.579-8.496-6.451 5.166v-4.666h-3.2v22.4c0 1.766 1.434 3.198 3.2 3.198h25.6c1.766 0 3.2-1.432 3.2-3.198v-25.602c0-1.766-1.434-3.198-3.2-3.198zM3.2 15.168l6.203-4.963 7.872 8.995h-14.075v-4.032zM28.8 28.802h-25.6v-6.402h25.6v6.402zM28.8 19.2h-7.285l-2.078-2.33 9.363-4.682v7.011zM3.2 0.002h-3.2v3.2h3.2v-3.2zM11.2 24h-3.2v3.2h3.2v-3.2zM17.6 24h-3.2v3.2h3.2v-3.2zM24 24h-3.2v3.2h3.2v-3.2z"></path>
		</symbol>
		<symbol id="olymp-settings-v2-icon" viewBox="0 0 32 32">
			<title>settings-v2-icon</title>
			<path d="M8.889 21.333c-2.32 0-4.272 1.488-5.006 3.556h-3.883v3.556h3.883c0.734 2.066 2.686 3.556 5.006 3.556s4.272-1.49 5.006-3.556h10.994v-3.556h-10.994c-0.734-2.068-2.686-3.556-5.006-3.556zM10.667 28.444h-3.556v-3.556h3.556v3.556zM23.111 10.667c-2.32 0-4.272 1.49-5.006 3.556h-18.105v3.556h18.105c0.734 2.068 2.688 3.556 5.006 3.556s4.272-1.49 5.006-3.556h3.883v-3.556h-3.883c-0.734-2.068-2.686-3.556-5.006-3.556zM24.889 17.778h-3.556v-3.556h3.556v3.556zM13.895 3.556c-0.734-2.068-2.686-3.556-5.006-3.556s-4.272 1.488-5.006 3.556h-3.883v3.556h3.883c0.734 2.066 2.686 3.556 5.006 3.556s4.272-1.488 5.006-3.556h18.105v-3.556h-18.105zM10.667 7.111h-3.556v-3.556h3.556v3.556zM28.444 28.444h3.556v-3.556h-3.556v3.556z"></path>
		</symbol>
		<symbol id="olymp-close-icon" viewBox="0 0 32 32">
			<title>close-icon</title>
			<path d="M14.222 17.778h3.556v-3.556h-3.556v3.556zM31.084 3.429l-2.514-2.514-10.057 10.057 2.514 2.514 10.057-10.057zM0.916 28.571l2.514 2.514 10.057-10.055-2.516-2.514-10.055 10.055zM18.514 21.029l10.057 10.055 2.514-2.514-10.057-10.055-2.514 2.514zM0.916 3.431l10.057 10.055 2.516-2.514-10.059-10.057-2.514 2.516z"></path>
		</symbol>
		<symbol id="olymp-logout-icon" viewBox="0 0 43 32">
			<title>logout-icon</title>
			<path d="M26.667 3.557c4.962 0 9.232 2.91 11.23 7.111h3.838c-2.197-6.212-8.105-10.668-15.068-10.668s-12.873 4.457-15.070 10.667h3.84c1.998-4.199 6.268-7.109 11.23-7.109zM26.667 28.446c-4.962 0-9.232-2.91-11.23-7.111h-3.84c2.199 6.21 8.107 10.665 15.070 10.665 6.962 0 12.871-4.455 15.070-10.665h-3.838c-2 4.201-6.27 7.111-11.232 7.111zM23.111 17.778v-3.556h-16.306l3.252-3.25-2.514-2.514-7.543 7.541 7.543 7.543 2.514-2.514-3.252-3.252h16.306zM39.111 14.224v3.556h3.556v-3.556h-3.556z"></path>
		</symbol>
		<symbol id="olymp-settings-icon" viewBox="0 0 32 32">
			<title>settings-icon</title>
			<path d="M7.111 3.881v-3.881h-3.556v3.883c-2.068 0.734-3.556 2.686-3.556 5.006s1.488 4.272 3.556 5.006v10.994h3.556v-10.996c2.068-0.734 3.556-2.686 3.556-5.004s-1.488-4.272-3.556-5.008zM7.111 10.667h-3.556v-3.556h3.556v3.556zM28.444 3.881v-3.881h-3.556v3.883c-2.066 0.734-3.556 2.686-3.556 5.006s1.49 4.27 3.556 5.006v18.105h3.556v-18.107c2.066-0.734 3.556-2.686 3.556-5.004s-1.49-4.272-3.556-5.008zM28.444 10.667h-3.556v-3.556h3.556v3.556zM17.778 18.105v-18.105h-3.556v18.105c-2.068 0.734-3.556 2.686-3.556 5.006 0 2.318 1.488 4.27 3.556 5.006v3.883h3.556v-3.883c2.066-0.736 3.556-2.69 3.556-5.006 0-2.32-1.49-4.272-3.556-5.006zM17.778 24.887h-3.556v-3.554h3.556v3.554zM3.556 32h3.556v-3.556h-3.556v3.556z"></path>
		</symbol>
		<symbol id="olymp-blog-icon" viewBox="0 0 29 32">
			<title>blog-icon</title>
			<path d="M25.6 0h-22.4c-1.766 0-3.2 1.434-3.2 3.2v28.8h22.4v-6.4h6.4v-3.2h-9.6v6.4h-16v-25.6h22.4v9.6h3.2v-9.6c0-1.766-1.434-3.2-3.2-3.2zM22.4 6.4h-16v3.2h16v-3.2zM22.4 12.798h-16v3.202h16v-3.202zM6.4 22.4h9.6v-3.2h-9.6v3.2zM25.6 19.2h3.2v-3.2h-3.2v3.2z"></path>
		</symbol>
		<symbol id="olymp-status-icon" viewBox="0 0 36 32">
			<title>status-icon</title>
			<path d="M32-0.002h-28.444c-1.963 0-3.556 1.593-3.556 3.557v21.332h3.554v0.004h28.444v-3.557h-28.443v-17.778h28.444v24.889h-24.889v3.556h24.889c1.963 0 3.556-1.593 3.556-3.556v-24.889c0-1.964-1.593-3.557-3.556-3.557zM0 32h3.556v-3.556h-3.556v3.556zM7.109 7.111v3.557h10.667v-3.557h-10.667zM7.109 17.778h21.333v-3.556h-21.333v3.556z"></path>
		</symbol>
		<symbol id="olymp-happy-sticker-icon" viewBox="0 0 32 32">
			<title>happy-sticker-icon</title>
			<path d="M25.6 0.002h-4.8v3.2h4.8c1.766 0 3.2 1.432 3.2 3.198v12.8h-3.2c-3.534 0-6.4 2.867-6.4 6.402v3.2h-12.8c-1.766 0-3.2-1.434-3.2-3.2v-19.202c0-1.766 1.434-3.198 3.2-3.198h4.8v-3.2h-4.8c-3.534 0-6.4 2.864-6.4 6.398v19.202c0 3.534 2.866 6.398 6.4 6.398h17.6c3.234-3.248 5-4.765 8-7.998v-17.602c0-3.533-2.866-6.398-6.4-6.398zM22.4 28.802v-3.2c0-1.766 1.434-3.2 3.2-3.2h3.2c-1.8 1.618-3.982 3.949-6.4 6.4zM11.2 12.8h-3.2v3.2h3.2v-3.2zM15.978 22.395c2.646 0 4.792-1.358 4.792-3.034v-0.158h-9.586v0.158c0 1.675 2.147 3.034 4.794 3.034zM17.6 0h-3.2v3.2h3.2v-3.2zM23.998 12.8h-3.198v3.2h3.198v-3.2z"></path>
		</symbol>
		<symbol id="olymp-happy-face-icon" viewBox="0 0 32 32">
			<title>happy-face-icon</title>
			<path d="M16 0c-8.837 0-16 7.16-16 15.989 0 7.166 4.715 13.227 11.213 15.262v-3.39c-4.69-1.899-8-6.49-8-11.859 0-7.070 5.731-12.802 12.8-12.802s12.8 5.731 12.8 12.802c0 5.37-3.312 9.96-8 11.859v3.378c6.485-2.040 11.187-8.094 11.187-15.25 0-8.829-7.165-15.989-16-15.989zM11.211 12.8h-3.2v3.202h3.2v-3.202zM20.813 12.8v3.202h3.2v-3.202h-3.2zM11.198 19.365c0 1.675 2.146 3.032 4.794 3.032s4.794-1.357 4.794-3.032v-0.16h-9.587v0.16zM14.413 32.002h3.2v-3.2h-3.2v3.2z"></path>
		</symbol>
		<symbol id="olymp-computer-icon" viewBox="0 0 35 32">
			<title>computer-icon</title>
			<path d="M32 22.4h-28.8v-19.2h32c0-1.766-1.434-3.2-3.2-3.2h-28.8c-1.766 0-3.2 1.432-3.2 3.2v19.2c0 1.766 1.434 3.202 3.2 3.202h9.6v3.198h-4.8v3.2h19.2v-3.2h-4.8v-3.198h9.6c1.766 0 3.2-1.434 3.2-3.202v-9.598h-3.2v9.598zM19.2 28.8h-3.2v-3.198h3.2v3.198zM32 9.6h3.2v-3.198h-3.2v3.198zM12.8 14.402v-3.2h-3.2v3.2h3.2zM19.2 14.402v-3.2h-3.2v3.2h3.2zM25.6 14.402v-3.2h-3.2v3.2h3.2z"></path>
		</symbol>
		<symbol id="olymp-manage-widgets-icon" viewBox="0 0 39 32">
			<title>manage-widgets-icon</title>
			<path d="M0 3.554v24.891c0 1.963 1.593 3.556 3.556 3.556h14.222v-3.556h-14.222v-24.891h14.222v-3.556h-14.222c-1.963 0-3.556 1.593-3.556 3.556zM10.667 24.889v-17.778h-3.556v17.778h3.556zM14.222 24.889h3.556v-17.778h-3.556v17.778zM21.333 3.554h3.556v-3.556h-3.556v3.556zM28.444 3.554h3.556v-3.556h-3.556v3.556zM35.556-0.002v3.556h3.556v-3.556h-3.556zM35.556 10.665h3.556v-3.554h-3.556v3.554zM35.556 17.776h3.556v-3.556h-3.556v3.556zM35.556 24.889h3.556v-3.556h-3.556v3.556zM35.556 32h3.556v-3.556h-3.556v3.556zM28.444 32h3.556v-3.556h-3.556v3.556zM21.333 32h3.556v-3.556h-3.556v3.556z"></path>
		</symbol>
		<symbol id="olymp-badge-icon" viewBox="0 0 32 32">
			<title>badge-icon</title>
			<path d="M25.6 16c0-5.302-4.299-9.6-9.6-9.6s-9.6 4.298-9.6 9.6c0 5.301 4.299 9.598 9.6 9.598s9.6-4.298 9.6-9.598zM9.6 16c0-3.534 2.866-6.4 6.4-6.4s6.4 2.867 6.4 6.4-2.866 6.402-6.4 6.402-6.4-2.867-6.4-6.402zM16 0c-8.837 0-16 7.163-16 16 0 7.163 4.709 13.227 11.2 15.266v-3.405c-4.69-1.899-8-6.491-8-11.861 0-7.069 5.731-12.8 12.8-12.8s12.8 5.731 12.8 12.8c0 5.37-3.31 9.962-8 11.861v3.405c6.491-2.038 11.2-8.102 11.2-15.266 0-8.837-7.165-16-16-16zM14.4 31.998h3.2v-3.198h-3.2v3.198z"></path>
		</symbol>
		<symbol id="olymp-newsfeed-icon" viewBox="0 0 29 32">
			<title>newsfeed-icon</title>
			<path d="M6.4 25.602v-3.202h9.6v3.202h-9.6zM6.4 16h16v3.2h-16v-3.2zM22.4 25.602v6.398h-22.4v-28.8c0-1.766 1.434-3.2 3.2-3.2h22.4c1.766 0 3.2 1.434 3.2 3.2v9.6h-25.6v16.002h16v-6.402h9.6v3.202h-6.4zM25.6 9.6v-6.4h-22.4v6.4h22.4zM8 8h-3.2v-3.2h3.2v3.2zM12.8 8h-3.2v-3.2h3.2v3.2zM17.6 8h-3.2v-3.2h3.2v3.2zM25.6 16h3.2v3.2h-3.2v-3.2z"></path>
		</symbol>
		<symbol id="olymp-camera-icon" viewBox="0 0 43 32">
			<title>camera-icon</title>
			<path d="M21.333 10.667c-3.927 0-7.111 3.182-7.111 7.111 0 3.927 3.184 7.111 7.111 7.111s7.111-3.184 7.111-7.111c0-3.929-3.184-7.111-7.111-7.111zM21.333 21.337c-1.963 0-3.556-1.593-3.556-3.556s1.593-3.556 3.556-3.556 3.556 1.593 3.556 3.556-1.593 3.556-3.556 3.556zM35.556 3.556h-3.556c0-1.964-1.593-3.556-3.556-3.556h-14.222c-1.963 0-3.556 1.591-3.556 3.556h-3.556c-3.927 0-7.111 3.184-7.111 7.111v14.222c0 3.929 3.184 7.111 7.111 7.111 0 0 6.924 0 15.89 0h0.11v-3.556h-16c-1.963 0-3.556-1.593-3.556-3.556v-14.222c0-1.963 1.593-3.556 3.556-3.556h7.111v-3.556h14.222v3.556h7.111c1.963 0 3.556 1.593 3.556 3.556v14.222c0 1.963-1.593 3.556-3.556 3.556h-1.778v3.556c1.122 0 1.778 0 1.778 0 3.927 0 7.111-3.182 7.111-7.111v-14.222c0-3.927-3.184-7.111-7.111-7.111zM26.667 32h3.556v-3.556h-3.556v3.556z"></path>
		</symbol>
		<symbol id="olymp-stats-icon" viewBox="0 0 32 32">
			<title>stats-icon</title>
			<path d="M23.273 10.182h-2.909v1.236l-3.873 12.589-0.765-5.1h-2.941l1.761 11.745v1.347h2.909v-1.236l4.313-14.015 1.505 5.271v1.252h2.909v-2.909l-2.909-8.932v-1.249zM14.416 10.182l-1.325-8.836v-1.345h-2.909v1.233l-5.818 17.673h-4.364v2.912h7.273v-1.455l3.873-12.371 0.49 2.189h2.78zM29.091 20.364v2.909h2.909v-2.909h-2.909zM14.545 13.091h-2.909v2.908h2.909v-2.908z"></path>
		</symbol>
		<symbol id="olymp-calendar-icon" viewBox="0 0 26 32">
			<title>calendar-icon</title>
			<path d="M23.273 32h2.909v-2.909h-2.909v2.909zM23.273 2.911h-2.909v-1.456c0-0.801-0.652-1.455-1.455-1.455-0.804 0-1.455 0.653-1.455 1.455v1.456h-8.727v-1.456c0-0.801-0.652-1.455-1.455-1.455-0.804 0-1.455 0.653-1.455 1.455v1.456h-2.909c-1.606 0-2.909 1.302-2.909 2.909v23.271c0 1.607 1.303 2.909 2.909 2.909h17.455v-2.909h-17.455v-23.271h2.909v1.453c0 0.803 0.65 1.455 1.455 1.455 0.803 0 1.455-0.652 1.455-1.455v-1.453h8.727v1.453c0 0.803 0.65 1.455 1.455 1.455 0.803 0 1.455-0.652 1.455-1.455v-1.453h2.909v20.362h2.909v-20.362c0-1.607-1.303-2.909-2.909-2.909zM7.273 26.182h2.909v-2.909h-2.909v2.909zM14.545 26.182v-2.909h-2.909v2.909h2.909zM16 26.182h2.909v-2.909h-2.909v2.909zM14.545 18.909h-7.273v2.909h7.273v-2.909zM18.909 18.909h-2.909v2.909h2.909v-2.909zM14.545 14.547h-7.273v2.908h7.273v-2.908zM18.909 14.547h-2.909v2.908h2.909v-2.908z"></path>
		</symbol>
		<symbol id="olymp-happy-faces-icon" viewBox="0 0 33 32">
			<title>happy-faces-icon</title>
			<path d="M13.329 5.357c-7.364 0-13.333 5.965-13.333 13.325 0 5.971 3.929 11.023 9.344 12.716v-2.823c-3.908-1.584-6.667-5.409-6.667-9.885 0-5.889 4.776-10.665 10.667-10.665s10.667 4.776 10.667 10.665c0 4.476-2.759 8.303-6.667 9.885v2.815c5.404-1.7 9.323-6.745 9.323-12.708 0-7.36-5.969-13.325-13.333-13.325zM9.34 16.025h-2.667v2.665h2.667v-2.665zM17.34 16.025v2.665h2.667v-2.665h-2.667zM9.328 21.495c0 1.395 1.788 2.527 3.995 2.527s3.995-1.132 3.995-2.527v-0.135h-7.989v0.135zM12.007 32.025h2.667v-2.668h-2.667v2.668zM13.805 2.691h8.868c0 0 1.495 0.417 2.183 0.697l2.397-1.797c-1.747-0.993-3.761-1.565-5.913-1.565-2.856 0-5.475 1.001-7.535 2.665zM32.472 7.56l-2.131 2.129c0.195 0.751 0.331 1.523 0.331 2.336 0 1.756-0.488 3.392-1.333 4.789v4.14c2.452-2.195 4-5.38 4-8.931 0.001-1.58-0.311-3.083-0.867-4.464zM30.673 4.025h-2.667v2.667h2.667v-2.667z"></path>
		</symbol>
		<symbol id="olymp-thunder-icon" viewBox="0 0 26 32">
			<title>thunder-icon</title>
			<path d="M25.6 11.198h-8l6.4-11.198-18.669 0.005-5.331 17.597h4.798l-1.598 14.398 4.8-4.458v-4.914l-1.6 1.371 1.6-9.602h-3.2l3.2-11.2h9.6l-4.8 11.2h4.8v4.23l8-7.43zM11.2 22.4h3.2v-3.2h-3.2v3.2z"></path>
		</symbol>
		<symbol id="olymp-menu-icon" viewBox="0 0 41 32">
			<title>menu-icon</title>
			<path d="M4.571 0h-4.571v4.571h4.571v-4.571zM9.143 0v4.571h32v-4.571h-32zM13.714 13.714h-13.714v4.571h13.714v-4.571zM18.286 13.714v4.571h4.571v-4.571h-4.571zM27.429 18.286h13.714v-4.571h-13.714v4.571zM0 32h32v-4.569h-32v4.569zM36.571 32h4.571v-4.569h-4.571v4.569z"></path>
		</symbol>
		<symbol id="olymp-shopping-bag-icon" viewBox="0 0 512 512">
			<path d="m326 512l116 0-23-419-70 0c0-51-42-93-93-93-51 0-93 42-93 93l-70 0-23 419 116 0 0-47-70 0 24-325 23 0 0 46 46 0 0-46 94 0 0 46 46 0 0-46 23 0 24 325-70 0z m-117-419c0-26 21-46 47-46 26 0 47 20 47 46z m24 419l46 0 0-47-46 0z" />
		</symbol>
		<symbol id="olymp-home-icon" viewBox="0 0 32 32">
			<title>Home-Icon</title>
			<path d="M25.6 32h-6.4v-9.6h-6.4v9.6h-6.4c-1.766 0-3.2-1.434-3.2-3.2v-1.6h3.2v1.6h3.2v-9.6h12.8v9.6h3.2v-16l3.2 1.6v14.4c0 1.766-1.434 3.2-3.2 3.2zM3.2 20.8h3.2v3.2h-3.2v-3.2zM3.2 14.4l3.2-1.6v4.8h-3.2v-3.2z"></path>
			<path d="M16 4.526l11.475 11.474h4.525l-16-16-16 16h4.526z"></path>
		</symbol>
		<symbol id="olymp-info-icon" viewBox="0 0 32 32">
			<title>Info-Icon</title>
			<path d="M16 0c-8.837 0-16 7.158-16 15.989 0 7.165 4.714 13.226 11.213 15.261v-3.389c-4.69-1.901-8-6.49-8-11.859 0-7.069 5.731-12.798 12.8-12.798s12.8 5.73 12.8 12.798c0 5.37-3.312 9.962-8 11.859v3.376c6.485-2.040 11.187-8.093 11.187-15.248 0-8.83-7.166-15.989-16-15.989zM14.413 24.002h3.2v-9.6h-3.2v9.6zM14.413 11.202h3.2v-3.2h-3.2v3.2zM14.413 32h3.2v-3.2h-3.2v3.2z"></path>
		</symbol>
		<symbol id="olymp-stats-icon" viewBox="0 0 32 32">
			<title>stats-icon</title>
			<path d="M23.273 10.182h-2.909v1.236l-3.873 12.589-0.765-5.1h-2.941l1.761 11.745v1.347h2.909v-1.236l4.313-14.015 1.505 5.271v1.252h2.909v-2.909l-2.909-8.932v-1.249zM14.416 10.182l-1.325-8.836v-1.345h-2.909v1.233l-5.818 17.673h-4.364v2.912h7.273v-1.455l3.873-12.371 0.49 2.189h2.78zM29.091 20.364v2.909h2.909v-2.909h-2.909zM14.545 13.091h-2.909v2.908h2.909v-2.908z"></path>
		</symbol>
		<symbol id="olymp-thunder-icon" viewBox="0 0 26 32">
			<title>thunder-icon</title>
			<path d="M25.6 11.198h-8l6.4-11.198-18.669 0.005-5.331 17.597h4.798l-1.598 14.398 4.8-4.458v-4.914l-1.6 1.371 1.6-9.602h-3.2l3.2-11.2h9.6l-4.8 11.2h4.8v4.23l8-7.43zM11.2 22.4h3.2v-3.2h-3.2v3.2z"></path>
		</symbol>
		<symbol id="olymp-pencil-icon" viewBox="0 0 512 512">
			<title>pencil-icon</title>
			<path d="m384.721 0-323.626 323.627-61.095 188.373 188.374-61.094 323.626-323.627zm84.853 127.279-42.427 42.427-84.853-84.853 42.426-42.427zm-388.611 232.331 71.427 71.428-32.036 10.39-49.782-49.782zm14.501-27.925 225.617-225.618 31.82 31.82-225.618 225.617zm53.032 53.032 225.618-225.619 31.82 31.82-225.618 225.619zm-88.313 38.965 28.136 28.136-41.642 13.505z"></path>
		</symbol>
		<symbol id="new-close-icon" viewBox="0 0 496 496">
			<title>new-close-icon</title>
			<path d="M248,0C111.033,0,0,111.033,0,248s111.033,248,248,248s248-111.033,248-248C495.841,111.099,384.901,0.159,248,0z
				 M248,480C119.87,480,16,376.13,16,248S119.87,16,248,16s232,103.87,232,232C479.859,376.072,376.072,479.859,248,480z" />
			<path d="M361.136,134.864c-3.124-3.123-8.188-3.123-11.312,0L248,236.688L146.176,134.864c-3.069-3.178-8.134-3.266-11.312-0.197
				c-3.178,3.069-3.266,8.134-0.197,11.312c0.064,0.067,0.13,0.132,0.197,0.197L236.688,248L134.864,349.824
				c-3.178,3.07-3.266,8.134-0.196,11.312c3.07,3.178,8.134,3.266,11.312,0.196c0.067-0.064,0.132-0.13,0.196-0.196L248,259.312
				l101.824,101.824c3.178,3.07,8.242,2.982,11.312-0.196c2.995-3.1,2.995-8.016,0-11.116L259.312,248l101.824-101.824
				C364.259,143.052,364.259,137.988,361.136,134.864z" />
		</symbol>
		<symbol id="new-accept-icon" viewBox="0 0 448 448.55357">
			<title>new-accept-icon</title>
			<path d="m224.550781 0c-123.667969 0-224.273437 100.605469-224.273437 224.277344 0 123.667968 100.605468 224.277344 224.273437 224.277344 123.664063 0 224.269531-100.609376 224.269531-224.277344 0-123.671875-100.605468-224.277344-224.269531-224.277344zm0 430.269531c-113.582031 0-205.988281-92.414062-205.988281-205.992187 0-113.582032 92.40625-205.992188 205.988281-205.992188 113.578125 0 205.984375 92.410156 205.984375 205.992188 0 113.578125-92.40625 205.992187-205.984375 205.992187zm0 0" />
			<path d="m340.378906 134.847656-159.46875 159.464844-72.191406-72.1875c-3.570312-3.570312-9.355469-3.570312-12.929688 0-3.570312 3.570312-3.570312 9.355469 0 12.929688l78.65625 78.652343c1.785157 1.785157 4.125 2.675781 6.464844 2.675781s4.679688-.890624 6.464844-2.675781l165.933594-165.929687c3.570312-3.570313 3.570312-9.359375 0-12.929688-3.570313-3.570312-9.359375-3.570312-12.929688 0zm0 0" />
		</symbol>
		<symbol id="olymp-points-icon" viewBox="0 0 60 60">
			<title>points-icon</title>
			<path
				d="M59.989,21c-0.099-1.711-2.134-3.048-6.204-4.068c0.137-0.3,0.214-0.612,0.215-0.936V9h-0.017C53.625,3.172,29.743,3,27,3
	S0.375,3.172,0.017,9H0v0.13v0v0l0,6.869c0.005,1.9,2.457,3.387,6.105,4.494c-0.05,0.166-0.08,0.335-0.09,0.507H6v0.13v0v0l0,6.857
	C2.07,28.999,0.107,30.317,0.01,32H0v0.13v0v0l0,6.869c0.003,1.323,1.196,2.445,3.148,3.38c-0.074,0.203-0.12,0.41-0.133,0.622H3
	v0.13v0v0l0,6.869c0.008,3.326,7.497,5.391,15.818,6.355c0.061,0.012,0.117,0.037,0.182,0.037c0.019,0,0.035-0.01,0.054-0.011
	c1.604,0.181,3.234,0.322,4.847,0.423c0.034,0.004,0.064,0.02,0.099,0.02c0.019,0,0.034-0.01,0.052-0.011
	C26.1,56.937,28.115,57,30,57c1.885,0,3.9-0.063,5.948-0.188c0.018,0.001,0.034,0.011,0.052,0.011c0.035,0,0.065-0.017,0.099-0.02
	c1.613-0.101,3.243-0.241,4.847-0.423C40.965,56.38,40.981,56.39,41,56.39c0.065,0,0.121-0.025,0.182-0.037
	c8.321-0.964,15.809-3.03,15.818-6.357V43h-0.016c-0.07-1.226-1.115-2.249-3.179-3.104c0.126-0.289,0.195-0.589,0.195-0.9V32.46
	c3.59-1.104,5.995-2.581,6-4.464V21H59.989z M51.892,39.321l-0.341,0.299C51.026,40.083,50.151,40.55,49,41v-4.768
	c1.189-0.414,2.201-0.873,3-1.376v4.138C52,39.097,51.962,39.207,51.892,39.321z M29.526,43.968
	c-0.146,0.004-0.293,0.006-0.44,0.009c-0.357,0.007-0.723,0.009-1.085,0.012v-4.995c0.275-0.003,0.55-0.007,0.825-0.012
	c0.053-0.001,0.106-0.002,0.159-0.003c1.007-0.019,2.014-0.05,3.016-0.096v4.993c-0.214,0.011-0.429,0.021-0.646,0.03
	C30.753,43.933,30.145,43.953,29.526,43.968z M25.159,43.982c-0.458-0.008-0.914-0.019-1.367-0.033
	c-0.056-0.002-0.112-0.004-0.168-0.006c-0.545-0.018-1.086-0.041-1.623-0.067v-4.992c1.002,0.047,2.009,0.078,3.016,0.096
	c0.053,0.001,0.106,0.002,0.158,0.003c0.275,0.005,0.55,0.009,0.825,0.012v4.998c-0.194-0.002-0.388-0.002-0.581-0.005
	C25.331,43.986,25.246,43.983,25.159,43.982z M7.097,41.702C7.064,41.692,7.033,41.683,7,41.674v-4.831
	c0.934,0.252,1.938,0.482,3,0.691v4.881c-0.918-0.195-1.765-0.4-2.536-0.61C7.342,41.77,7.216,41.737,7.097,41.702z M28.175,49.983
	c0.275,0.005,0.55,0.009,0.825,0.012v4.999c-1.382-0.013-2.716-0.053-4-0.116v-4.993c1.002,0.047,2.009,0.078,3.016,0.096
	C28.069,49.981,28.122,49.982,28.175,49.983z M31.984,49.98c1.007-0.019,2.014-0.05,3.016-0.096v4.993
	c-1.284,0.063-2.618,0.103-4,0.116v-4.999c0.275-0.003,0.55-0.007,0.825-0.012C31.878,49.982,31.931,49.981,31.984,49.98z
	 M40,49.528v4.966c-0.961,0.101-1.961,0.19-3,0.263v-4.987C38.014,49.704,39.016,49.623,40,49.528z M42,49.312
	c1.031-0.124,2.032-0.265,3-0.422v4.91c-0.942,0.166-1.943,0.319-3,0.458V49.312z M47,48.533c1.062-0.209,2.066-0.439,3-0.691v4.831
	c-0.891,0.257-1.894,0.506-3,0.741V48.533z M13,48.533v4.881c-1.106-0.235-2.109-0.484-3-0.741v-4.831
	C10.934,48.094,11.938,48.325,13,48.533z M15,48.891c0.968,0.157,1.969,0.298,3,0.422v4.946c-1.057-0.139-2.058-0.292-3-0.458
	V48.891z M20,49.528c0.984,0.095,1.986,0.176,3,0.243v4.987c-1.039-0.073-2.039-0.162-3-0.263V49.528z M17.519,43.548
	c-0.102-0.01-0.203-0.021-0.304-0.031c-0.072-0.007-0.143-0.016-0.215-0.023v-4.965c0.984,0.095,1.986,0.176,3,0.243v4.983
	C19.16,43.695,18.33,43.627,17.519,43.548z M15,38.312v4.946c-1.057-0.139-2.058-0.292-3-0.458v-4.91
	C12.968,38.047,13.969,38.189,15,38.312z M34.666,43.708c-0.22,0.017-0.442,0.034-0.666,0.05v-4.987
	c1.014-0.067,2.016-0.147,3-0.243v4.966c-0.618,0.065-1.25,0.126-1.899,0.179C34.956,43.686,34.811,43.697,34.666,43.708z
	 M39,43.258v-4.946c1.031-0.124,2.032-0.265,3-0.422v4.91C41.058,42.966,40.057,43.12,39,43.258z M44,37.533
	c1.062-0.209,2.066-0.439,3-0.691v4.831c-0.891,0.257-1.894,0.506-3,0.741V37.533z M30.325,32.965
	c-0.752-0.019-1.487-0.048-2.209-0.083c-0.039-0.002-0.078-0.004-0.116-0.005v-4.993c1.002,0.047,2.009,0.078,3.016,0.096
	c0.053,0.001,0.106,0.002,0.158,0.003c0.275,0.005,0.55,0.009,0.825,0.012v4.993c-0.487-0.005-0.978-0.007-1.453-0.018
	C30.473,32.968,30.398,32.967,30.325,32.965z M7,18.674v-4.831c0.934,0.252,1.938,0.482,3,0.691v4.881
	c-0.123-0.026-0.25-0.052-0.37-0.078c-0.532-0.117-1.051-0.239-1.547-0.368C7.705,18.872,7.346,18.773,7,18.674z M25.175,15.983
	c0.275,0.005,0.55,0.009,0.825,0.012v4.993c-1.346-0.013-2.684-0.048-4-0.114v-4.989c1.002,0.047,2.009,0.078,3.016,0.096
	C25.069,15.981,25.122,15.982,25.175,15.983z M28.984,15.98c1.007-0.019,2.014-0.05,3.016-0.096v4.989
	c-0.17,0.008-0.333,0.02-0.504,0.028c-0.014,0.001-0.028,0.001-0.043,0.002c-0.671,0.03-1.355,0.052-2.048,0.068
	c-0.108,0.003-0.216,0.004-0.324,0.007c-0.356,0.007-0.72,0.008-1.081,0.012v-4.995c0.275-0.003,0.55-0.007,0.825-0.012
	C28.878,15.982,28.931,15.981,28.984,15.98z M51.771,16.482l-0.028-0.006l-0.364,0.283C50.851,17.17,50.04,17.586,49,17.988v-4.757
	c1.189-0.414,2.201-0.873,3-1.376v4.138C52,16.145,51.92,16.309,51.771,16.482z M39,20.252v-4.94c1.031-0.124,2.032-0.265,3-0.422
	v4.902C41.052,19.96,40.054,20.114,39,20.252z M44,19.407v-4.873c1.062-0.209,2.066-0.439,3-0.691v4.82
	C46.104,18.924,45.095,19.173,44,19.407z M37,15.528v4.96c-0.966,0.102-1.966,0.191-3,0.265v-4.982
	C35.014,15.704,36.016,15.623,37,15.528z M17,20.49v-4.962c0.984,0.095,1.986,0.176,3,0.243v4.978
	C18.982,20.676,17.978,20.593,17,20.49z M15,15.312v4.941c-0.198-0.026-0.404-0.047-0.6-0.074c-0.128-0.018-0.25-0.037-0.376-0.055
	c-0.578-0.083-1.143-0.172-1.697-0.265C12.216,19.84,12.109,19.82,12,19.801v-4.91C12.968,15.047,13.969,15.189,15,15.312z
	 M25.752,32.739c-0.135-0.01-0.271-0.02-0.405-0.03c-0.64-0.05-1.265-0.105-1.875-0.166c-0.131-0.013-0.262-0.027-0.392-0.04
	C23.053,32.5,23.027,32.496,23,32.494v-4.966c0.984,0.095,1.986,0.176,3,0.243v4.984C25.919,32.749,25.833,32.745,25.752,32.739z
	 M19.145,31.992c-0.396-0.063-0.768-0.131-1.145-0.197v-4.904c0.968,0.157,1.969,0.298,3,0.422v4.946
	c-0.612-0.081-1.211-0.165-1.786-0.255C19.191,31.999,19.168,31.995,19.145,31.992z M16,26.533v4.873
	c-1.105-0.237-2.107-0.489-3-0.751v-4.813C13.934,26.094,14.938,26.325,16,26.533z M11,25.231v4.751
	c-1.572-0.607-2.586-1.227-2.916-1.779l-0.067-0.112C8.011,28.06,8.001,28.027,8,27.996l0-4.141
	C8.799,24.358,9.811,24.817,11,25.231z M34.984,27.98c1.007-0.019,2.014-0.05,3.016-0.096v4.988c-1.314,0.065-2.65,0.101-4,0.115
	v-4.992c0.275-0.003,0.55-0.007,0.825-0.012C34.878,27.982,34.931,27.981,34.984,27.98z M47.907,31.817
	c-0.439,0.076-0.882,0.151-1.337,0.22c-0.261,0.04-0.528,0.078-0.796,0.116c-0.253,0.036-0.516,0.067-0.773,0.1v-4.941
	c1.031-0.124,2.032-0.265,3-0.422v4.91C47.969,31.806,47.938,31.812,47.907,31.817z M41.136,32.671
	c-0.373,0.031-0.758,0.051-1.136,0.078v-4.978c1.014-0.067,2.016-0.147,3-0.243v4.961c-0.581,0.061-1.161,0.122-1.758,0.172
	C41.206,32.664,41.172,32.668,41.136,32.671z M52.564,30.796c-0.498,0.139-1.025,0.269-1.563,0.396
	c-0.249,0.058-0.503,0.116-0.763,0.172c-0.077,0.017-0.159,0.032-0.237,0.049v-4.879c1.062-0.209,2.066-0.439,3-0.691v4.831
	C52.857,30.714,52.712,30.755,52.564,30.796z M57.989,21.065c-0.092,0.679-1.631,1.582-4.378,2.431l0,0
	c-3.538,1.093-9.074,2.094-16.09,2.404c-0.359,0.015-0.717,0.03-1.083,0.042c-0.299,0.01-0.599,0.019-0.904,0.027
	C34.706,25.987,33.866,26,33,26s-1.706-0.013-2.534-0.032c-0.304-0.007-0.604-0.017-0.904-0.027
	c-0.367-0.011-0.725-0.027-1.083-0.042c-7.016-0.31-12.553-1.311-16.09-2.404l0,0c-2.725-0.842-4.261-1.738-4.375-2.414
	c0.005-0.019,0.005-0.035,0.017-0.059c0.068,0.017,0.144,0.031,0.213,0.048c0.391,0.093,0.792,0.183,1.2,0.269
	c1.987,0.428,4.189,0.779,6.535,1.047c0.008,0,0.014,0.004,0.021,0.004c0.002,0,0.004-0.001,0.005-0.001
	c1.598,0.182,3.256,0.325,4.958,0.426c0.013,0,0.024,0.007,0.037,0.007c0.007,0,0.012-0.004,0.019-0.004
	c1.225,0.072,2.466,0.125,3.722,0.153C25.51,22.99,26.265,23,27,23c0.525,0,1.063-0.006,1.606-0.016
	c7.266-0.112,14-0.976,18.686-2.315c0.216-0.061,0.427-0.124,0.635-0.187c0.127-0.039,0.257-0.077,0.38-0.116
	c0.362-0.116,0.709-0.235,1.044-0.359c0.058-0.022,0.113-0.044,0.171-0.066c0.283-0.107,0.555-0.218,0.815-0.331
	c0.075-0.033,0.152-0.065,0.225-0.098c0.277-0.125,0.545-0.253,0.793-0.386c0.112-0.059,0.209-0.12,0.314-0.18
	c0.12-0.069,0.24-0.139,0.351-0.21c0.063-0.04,0.138-0.078,0.198-0.118C56.695,19.589,57.875,20.651,57.989,21.065z M27,5
	c16.489,0,24.829,2.596,24.985,4.086c-0.121,0.676-1.656,1.569-4.374,2.409l0,0c-3.538,1.093-9.074,2.094-16.09,2.404
	c-0.359,0.015-0.717,0.03-1.083,0.042c-0.299,0.01-0.599,0.019-0.904,0.027C28.706,13.987,27.866,14,27,14s-1.706-0.013-2.534-0.032
	c-0.304-0.007-0.604-0.017-0.904-0.027c-0.367-0.011-0.725-0.027-1.083-0.042c-7.016-0.31-12.553-1.311-16.09-2.404l0,0
	c-2.719-0.84-4.253-1.733-4.374-2.409C2.171,7.596,10.511,5,27,5z M2,15.996l0-4.141c0.799,0.503,1.811,0.962,3,1.376v4.788
	C3.055,17.29,2.002,16.559,2,15.996z M6.844,29.835c0.015,0.016,0.038,0.03,0.053,0.046c1.369,1.382,4.204,2.468,7.733,3.278
	c0.081,0.019,0.167,0.037,0.249,0.056c0.259,0.058,0.522,0.115,0.788,0.17c3.241,0.69,7.11,1.189,11.325,1.436
	c0.003,0,0.005,0.001,0.007,0.001c0.002,0,0.003-0.001,0.004-0.001c1.354,0.079,2.739,0.134,4.153,0.158
	C31.782,34.992,32.398,35,33,35c0.69,0,1.398-0.008,2.118-0.025c1.308-0.027,2.597-0.081,3.868-0.155
	c0.005,0,0.009,0.003,0.014,0.003c0.009,0,0.016-0.005,0.025-0.005c4.226-0.249,8.191-0.753,11.544-1.478
	c-0.726,0.38-1.72,0.773-2.958,1.156l0,0c-3.735,1.154-9.7,2.205-17.281,2.449c-0.225,0.007-0.447,0.015-0.675,0.021
	c-0.245,0.006-0.494,0.01-0.743,0.015C28.283,36.991,27.65,37,27,37c-0.866,0-1.706-0.013-2.534-0.032
	c-0.304-0.007-0.604-0.017-0.904-0.027c-0.367-0.011-0.725-0.027-1.083-0.042c-7.016-0.31-12.553-1.311-16.09-2.404l0,0
	c-2.75-0.85-4.289-1.754-4.378-2.433C2.122,31.686,3.133,30.745,6.844,29.835z M2,38.996l0-4.141c0.799,0.503,1.811,0.962,3,1.376
	v4.769l-0.571-0.222L4.417,40.79C2.847,40.139,2.002,39.5,2,38.996z M5,49.996l0-4.141c0.799,0.503,1.811,0.962,3,1.376v4.788
	C6.055,51.29,5.002,50.559,5,49.996z M52,52.019v-4.787c1.189-0.414,2.201-0.873,3-1.376v4.138
	C54.999,50.557,53.945,51.289,52,52.019z M54.987,43.077c-0.109,0.677-1.645,1.575-4.376,2.419l0,0
	c-3.538,1.093-9.074,2.094-16.09,2.404c-0.359,0.015-0.717,0.03-1.083,0.042c-0.299,0.01-0.599,0.019-0.904,0.027
	C31.706,47.987,30.866,48,30,48c-0.866,0-1.707-0.013-2.536-0.032c-0.301-0.007-0.598-0.017-0.895-0.027
	c-0.369-0.012-0.729-0.027-1.09-0.042c-7.016-0.31-12.552-1.311-16.09-2.404l0,0c-2.645-0.817-4.173-1.685-4.365-2.355
	c0.298,0.104,0.607,0.205,0.924,0.304c0.032,0.01,0.064,0.02,0.096,0.029c0.27,0.083,0.546,0.163,0.829,0.241
	c0.107,0.03,0.215,0.06,0.324,0.089c0.16,0.043,0.324,0.084,0.488,0.126c3.642,0.933,8.291,1.594,13.31,1.891
	c0.002,0,0.003,0.001,0.005,0.001c0.001,0,0.002-0.001,0.003-0.001c1.55,0.092,3.133,0.149,4.733,0.168
	C26.162,45.996,26.585,46,27,46c0.551,0,1.115-0.007,1.686-0.017c1.459-0.024,2.899-0.078,4.307-0.162
	c0.003,0,0.005,0.002,0.008,0.002c0.005,0,0.008-0.003,0.013-0.003c1.715-0.103,3.375-0.25,4.97-0.433
	c0.006,0,0.011,0.003,0.017,0.003c0.022,0,0.04-0.011,0.062-0.013c1.776-0.205,3.46-0.457,5.023-0.75
	c0.322-0.059,0.639-0.12,0.953-0.183c0.07-0.014,0.14-0.028,0.21-0.043c2.953-0.606,5.509-1.391,7.263-2.364
	c0.096-0.052,0.186-0.106,0.277-0.159c0.111-0.066,0.217-0.133,0.32-0.201c0.096-0.062,0.207-0.122,0.295-0.185
	C54.378,42.196,54.922,42.826,54.987,43.077z M55,30.019v-4.787c1.189-0.414,2.201-0.873,3-1.376v4.138
	C57.999,28.557,56.945,29.289,55,30.019z" />
		</symbol>
	</defs>
</svg>
